<?xml version="1.0" encoding="utf-8"?>
<!-- Generator: Adobe Illustrator 18.0.0, SVG Export Plug-In . SVG Version: 6.00 Build 0)  -->
<!DOCTYPE svg PUBLIC "-//W3C//DTD SVG 1.1//EN" "http://www.w3.org/Graphics/SVG/1.1/DTD/svg11.dtd">
<svg version="1.1" xmlns="http://www.w3.org/2000/svg" xmlns:xlink="http://www.w3.org/1999/xlink" x="0px" y="0px"
	 viewBox="0 0 500 500" enable-background="new 0 0 500 500" xml:space="preserve">
<g id="圖層_2">
	<circle opacity="0.36" fill="#358393" cx="264.7" cy="251" r="214.7"/>
</g>
<g id="圖層_1">
	<circle fill="#E25E5D" cx="240.7" cy="239.7" r="214.7"/>
	<circle fill="#358393" cx="240.7" cy="239.7" r="214.7"/>
</g>
<g id="圖層_3">
	<g>
		<g>
			<path fill="#EBB063" d="M193.7,137.5c-9.3-8.6-17.4-13.4-29-13.4c-13.4,0-20.8,6.3-20.8,18.8c0,28.1,68.8,23.8,68.8,74.5
				c0,24.7-13.8,43-39.8,48v26.3h-22.4v-25.3c-15.4-1.8-32.8-8.8-44.8-19.7l14.7-22.4c12.4,9.7,24.4,15.4,37.3,15.4
				c15.8,0,23.1-7,23.1-19.9c0-30.6-68.8-27.8-68.8-75.1c0-24.7,14.7-41.6,38.5-46.2V72.1h22.4v25.8c16.3,2.3,27.8,10.4,37.6,20.6
				L193.7,137.5z"/>
		</g>
		<g>
			<path fill="#EBB063" d="M364,312.2c-5.7-5.3-10.8-8.2-17.9-8.2c-8.2,0-12.9,3.9-12.9,11.6c0,17.3,42.5,14.7,42.5,46
				c0,15.2-8.5,26.6-24.6,29.6v16.2h-13.8v-15.7c-9.5-1.1-20.3-5.5-27.7-12.2l9.1-13.8c7.7,6,15.1,9.5,23.1,9.5
				c9.8,0,14.3-4.3,14.3-12.3c0-18.9-42.5-17.2-42.5-46.4c0-15.2,9.1-25.7,23.8-28.5v-16.2h13.8v15.9c10.1,1.4,17.2,6.4,23.2,12.7
				L364,312.2z"/>
		</g>
		<polygon fill="#EBB063" points="263.7,334.3 248,307 232.3,279.8 216.5,307 200.8,334.3 220,334.3 220,399.3 244.5,399.3 
			244.5,334.3 		"/>
		<polygon fill="#EBB063" points="246.8,187.1 262.5,214.3 278.2,241.6 293.9,214.3 309.7,187.1 290.4,187.1 290.4,122.1 266,122.1 
			266,187.1 		"/>
	</g>
</g>
</svg>
